<svg width="151" height="152" viewBox="0 0 151 152" fill="none" xmlns="http://www.w3.org/2000/svg">
<path fill-rule="evenodd" clip-rule="evenodd" d="M147.92 96.4522C147.276 98.7034 146.526 100.93 145.669 103.123L47.9279 5.38246C50.1225 4.52448 52.3484 3.77365 54.5976 3.12973L147.92 96.4522ZM40.811 8.60235C42.8129 7.56754 44.8505 6.62884 46.9172 5.78605L145.266 104.134C144.423 106.203 143.485 108.242 142.452 110.243L40.811 8.60235ZM150.274 66.3824C149.812 62.6261 149.069 58.8962 148.041 55.2271L95.8318 3.01807C92.1654 1.99118 88.4346 1.24579 84.6741 0.782918L150.274 66.3824ZM83.0809 0.603889C79.9933 0.289958 76.889 0.165803 73.787 0.231983L150.821 77.2655C150.888 74.1668 150.765 71.0636 150.452 67.975L83.0809 0.603889ZM150.778 78.6375C150.67 81.3658 150.414 84.0886 150.011 86.7928L64.2572 1.03875C66.9638 0.636188 69.6872 0.381295 72.4145 0.273694L150.778 78.6375ZM55.7041 2.82207C58.1256 2.16867 60.5725 1.63834 63.035 1.23077L149.819 88.0148C149.411 90.4788 148.88 92.9256 148.228 95.3456L55.7041 2.82207ZM137.819 33.2543C135.596 29.9905 133.088 26.8592 130.292 23.8946C126.44 19.8088 122.239 16.2484 117.78 13.216L137.819 33.2543ZM113.895 10.745C108.789 7.71395 103.396 5.33446 97.8381 3.61014L147.449 53.2206C145.725 47.6678 143.343 42.2702 140.299 37.1489L113.895 10.745ZM141.965 111.17C140.947 113.076 139.841 114.947 138.649 116.776L34.2801 12.4077C36.1105 11.2137 37.9805 10.1077 39.8842 9.0897L141.965 111.17ZM134.306 122.77C135.647 121.099 136.907 119.383 138.086 117.627L33.4292 12.971C31.6758 14.149 29.96 15.409 28.2871 16.7511L134.306 122.77ZM127.159 130.507C127.698 129.999 128.228 129.484 128.749 128.964L22.0894 22.3042C20.587 23.805 19.1608 25.3545 17.8109 26.9478L124.102 133.239C125.139 132.361 126.158 131.45 127.159 130.507ZM22.8015 21.6021L129.452 128.252C130.935 126.731 132.342 125.162 133.672 123.55L27.5072 17.3853C26.2036 18.4597 24.927 19.5848 23.6799 20.7607C23.3844 21.0394 23.0916 21.3198 22.8015 21.6021ZM17.167 27.7182L123.331 133.882C121.679 135.244 119.984 136.524 118.25 137.724L13.3259 32.7994C14.5257 31.0639 15.8061 29.3684 17.167 27.7182ZM12.7528 33.6405L117.409 138.297C115.601 139.512 113.753 140.639 111.87 141.68L9.37145 39.1815C10.4123 37.2966 11.5395 35.4477 12.7528 33.6405ZM8.87368 40.0979L110.954 142.178C108.977 143.236 106.963 144.198 104.919 145.066L5.98794 46.1349C6.85587 44.0891 7.81784 42.0745 8.87368 40.0979ZM5.57263 47.1338L103.921 145.482C101.754 146.365 99.5561 147.143 97.3335 147.816L3.23984 53.7228C3.91289 51.4982 4.69056 49.2993 5.57263 47.1338ZM2.91825 54.8154C2.23548 57.2017 1.67225 59.6158 1.22885 62.0483L89.0083 149.828C91.4392 149.385 93.8532 148.822 96.241 148.138L2.91825 54.8154ZM0.0600271 72.6299C-0.0607478 75.6647 0.000669385 78.7064 0.244802 81.7372L69.3137 150.806C72.3435 151.051 75.3864 151.114 78.4243 150.994L0.0600271 72.6299ZM0.125714 71.2814L79.7733 150.929C82.46 150.775 85.1409 150.478 87.8035 150.037L1.01929 63.2529C0.578593 65.9133 0.280613 68.5936 0.125714 71.2814ZM0.386271 83.2929L67.7574 150.664C64.1156 150.294 60.4971 149.659 56.933 148.762L2.28543 94.1145C1.38768 90.5481 0.754927 86.9305 0.386271 83.2929ZM2.79757 96.0408L55.0066 148.25C49.903 146.82 44.9241 144.846 40.1627 142.328L8.72866 110.894C6.20185 106.121 4.22572 101.14 2.79757 96.0408ZM10.5395 114.119L36.9432 140.523C31.0288 137.012 25.4996 132.627 20.546 127.373C16.6558 123.247 13.3212 118.799 10.5395 114.119Z" fill="url(#paint0_linear_21_53)" fill-opacity="0.6"/>
<defs>
<linearGradient id="paint0_linear_21_53" x1="2.81464" y1="63.3" x2="152.812" y2="94.1238" gradientUnits="userSpaceOnUse">
<stop stop-color="#ED7B50"/>
<stop offset="0.515625" stop-color="#488AEA"/>
<stop offset="1" stop-color="#2C2C2C"/>
</linearGradient>
</defs>
</svg>
